<?xml version="1.0" encoding="UTF-8"?>
<svg id="Ebene_1" data-name="Ebene 1" xmlns="http://www.w3.org/2000/svg" xmlns:xlink="http://www.w3.org/1999/xlink" viewBox="0 0 198.42601 141.73199">
  <defs>
    <style>
      .cls-1, .cls-2, .cls-3, .cls-4, .cls-5, .cls-6 {
        stroke-width: 0px;
      }

      .cls-1, .cls-5 {
        fill-rule: evenodd;
      }

      .cls-3 {
        fill: none;
      }

      .cls-4, .cls-5 {
        fill: #007cbc;
      }

      .cls-6 {
        fill: #fff;
      }

      .cls-7 {
        clip-path: url(#clippath);
      }
    </style>
    <clipPath id="clippath">
      <rect class="cls-3" width="198.425" height="141.73199"/>
    </clipPath>
  </defs>
  <g class="cls-7">
    <path class="cls-1" d="m49.6733,54.21609v-1.227c0-6.534-1.198-10.811-6.555-10.811-6.187,0-7.121,5.30701-7.121,11.008,0,5.308.267,11.404,6.922,11.404,4.325,0,6.322-2.772,6.489-7.72h-4.127c-.265,2.612-.898,3.998-2.428,3.998-1.698,0-2.263-2.45399-2.263-4.951v-1.701h9.083Zm-9.083-3.247v-.83199c0-1.979.532-4.237,2.362-4.237,1.897,0,2.23,1.823,2.329,5.06899h-4.691Z"/>
    <path class="cls-1" d="m55.9968,53.3855c0-4.634.399-7.01,2.429-7.01,1.996,0,2.395,2.376,2.395,7.01,0,4.631-.399,7.009-2.395,7.009-2.03,0-2.429-2.378-2.429-7.009m-4.592,10.65099h4.393v-2.258h.066c.998,1.981,2.263,2.812,4.059,2.812,3.761,0,5.49-3.28699,5.49-11.20499,0-7.92101-1.729-11.207-5.49-11.207-1.73,0-2.894.832-3.86,2.534h-.066v-8.948h-4.592v28.272Z"/>
    <path class="cls-2" d="m67.3814,64.03649h4.592v-14.018c0-2.455.931-3.643,2.395-3.643,1.298,0,1.798.99,1.798,2.772v14.889h4.592v-14.018c0-2.455.931-3.643,2.394-3.643,1.298,0,1.797.99,1.797,2.772v14.889h4.592v-15.48199c0-4.119-1.431-6.376-4.458-6.376-2.163,0-3.827,1.14899-4.526,3.406h-.067c-.499-2.178-2.029-3.406-4.126-3.406-1.928,0-3.36.793-4.52399,2.73199h-.066v-2.17699h-4.393v21.30299Z"/>
    <path class="cls-5" d="m97.85809,53.3853c0-4.633.399-7.01,2.43-7.01,1.996,0,2.395,2.377,2.395,7.01,0,4.632-.399,7.009-2.395,7.009-2.031,0-2.43-2.37701-2.43-7.009m-4.591,17.619h4.591v-8.949h.066c.965,1.704,2.13,2.535,3.86,2.535,3.76,0,5.49-3.287,5.49-11.205,0-7.92101-1.73-11.207-5.49-11.207-1.79601,0-3.061.832-4.059,2.811h-.066v-2.256h-4.392v28.271Z"/>
    <path class="cls-5" d="m113.3352,49.2664v-.593c0-1.664.733-2.773,2.129-2.773,1.53,0,2.131.99001,2.131,2.61301,0,1.42699-.467,2.06-1.83,2.495l-2.595.832c-3.162,1.029-4.526,2.653-4.526,6.654,0,2.85,1.131,6.096,4.325,6.096,2.19601,0,3.495-.554,4.55901-2.772h.067c.133.712.266,1.545.56499,2.21799h4.39301c-.467-1.228-.565-2.14-.565-4.119v-11.205c0-3.841-1.033-6.534-6.489-6.534-3.46301,0-6.29,1.663-6.29,6.57301v.515h4.126Zm4.26,8.31499c0,2.33601-1.59901,3.287-2.827,3.287-1.234,0-1.732-1.346-1.732-2.969,0-1.90099.732-2.96999,2.594-3.445.568-.16,1.332-.517,1.965-1.069v4.196Z"/>
    <path class="cls-5" d="m129.17358,53.3853c0-4.633.397-7.01,2.427-7.01,1.99701,0,2.395,2.377,2.395,7.01,0,4.632-.39799,7.009-2.395,7.009-2.03,0-2.427-2.37701-2.427-7.009m-4.59399,17.619h4.59399v-8.949h.065c.965,1.704,2.129,2.535,3.86,2.535,3.76001,0,5.489-3.287,5.489-11.205,0-7.92101-1.72899-11.207-5.489-11.207-1.798,0-3.063.832-4.06,2.811h-.06599v-2.256h-4.393v28.271Z"/>
    <path class="cls-4" d="m139.7915,57.0668v.75201c0,4.078,1.42999,6.771,6.58899,6.771,3.85701,0,6.653-2.216,6.653-6.69,0-3.208-1.064-4.952-3.959-6.099l-2.762-1.109c-1.531-.59399-1.998-1.465-1.998-2.495,0-1.504,1-2.297,2.16499-2.297,1.49701,0,2.03,1.069,2.03,3.209h4.125v-.87199c0-3.84-1.96199-6.05901-6.12199-6.05901-4.724,0-6.58701,2.89101-6.58701,6.416,0,3.01,1.29601,4.87,3.82401,5.939l3.229,1.384c.899.39799,1.66299,1.032,1.66299,2.417,0,1.703-.92999,2.534-2.329,2.534-1.56401,0-2.39599-1.227-2.39599-3.087v-.714h-4.125Z"/>
    <path class="cls-4" d="m155.6568,42.73329h-2.33v3.722h2.33v12.19601c0,4.31699.66499,5.62299,4.25899,5.62299,1.06601,0,1.996-.119,2.99301-.238v-3.803c-.29901.042-.66301.083-1.03101.083-1.32899,0-1.63-.675-1.63-2.338v-11.523h2.66101v-3.722h-2.66101v-6.098h-4.59099v6.098Z"/>
  </g>
</svg>
