<svg xmlns="http://www.w3.org/2000/svg" width="400" height="400" viewBox="0 0 30 30">
  <!-- Keine Hintergrundfläche – transparenter Hintergrund -->
    <rect x="6" y="6" width="18" height="18" fill="#fffffffff"/>
  <!-- Lichtkante oben und links -->
  <rect x="5" y="5" width="1" height="20" fill="#EF5350"/>
  <rect x="5" y="5" width="20" height="1" fill="#EF5350"/>

  <!-- Schattenkante unten und rechts -->
  <rect x="24" y="5" width="1" height="20" fill="#C62828"/>
  <rect x="5" y="24" width="20" height="1" fill="#C62828"/>

  <!-- Augen als diagonales X -->
  <rect x="8" y="9" width="1" height="1" fill="#B71C1C"/>
  <rect x="8" y="11" width="1" height="1" fill="#B71C1C"/>
  <rect x="9" y="10" width="1" height="1" fill="#B71C1C"/>
  <rect x="10" y="9" width="1" height="1" fill="#B71C1C"/>
  <rect x="10" y="11" width="1" height="1" fill="#B71C1C"/>
  <rect x="19" y="9" width="1" height="1" fill="#B71C1C"/>
  <rect x="20" y="10" width="1" height="1" fill="#B71C1C"/>
  <rect x="21" y="9" width="1" height="1" fill="#B71C1C"/>
  <rect x="19" y="11" width="1" height="1" fill="#B71C1C"/>
  <rect x="21" y="11" width="1" height="1" fill="#B71C1C"/>

  <!-- Mund nach unten gebogen -->
  <rect x="11" y="21" width="1" height="1" fill="#B71C1C"/>
  <rect x="12" y="20" width="1" height="1" fill="#B71C1C"/>
  <rect x="13" y="19" width="1" height="1" fill="#B71C1C"/>
  <rect x="14" y="19" width="1" height="1" fill="#B71C1C"/>
  <rect x="15" y="19" width="1" height="1" fill="#B71C1C"/>
  <rect x="16" y="19" width="1" height="1" fill="#B71C1C"/>
  <rect x="17" y="19" width="1" height="1" fill="#B71C1C"/>
  <rect x="18" y="20" width="1" height="1" fill="#B71C1C"/>
  <rect x="19" y="21" width="1" height="1" fill="#B71C1C"/>
</svg>
