<svg xmlns="http://www.w3.org/2000/svg" width="400" height="400" viewBox="0 0 30 30">
  <!-- Keine Hintergrundfläche – transparenter Hintergrund -->
    <rect x="6" y="6" width="18" height="18" fill="#fffffffff"/>
  <!-- Lichtkante oben und links (hellgrün) -->
  <rect x="5" y="5" width="1" height="20" fill="#81C784"/> <!-- linker Rand -->
  <rect x="5" y="5" width="20" height="1" fill="#81C784"/> <!-- oberer Rand -->

  <!-- Schattenkante unten und rechts (dunkelgrün) -->
  <rect x="24" y="5" width="1" height="20" fill="#2E7D32"/> <!-- rechter Rand -->
  <rect x="5" y="24" width="20" height="1" fill="#2E7D32"/> <!-- unterer Rand -->

  <!-- Augen -->
  <rect x="8" y="9" width="3" height="1" fill="#2E7D32"/>
  <rect x="8" y="10" width="3" height="2" fill="#66BB6A"/>

  <rect x="19" y="9" width="3" height="1" fill="#2E7D32"/>
  <rect x="19" y="10" width="3" height="2" fill="#66BB6A"/>

  <!-- Mund -->
  <rect x="10" y="18" width="1" height="1" fill="#2E7D32"/>
  <rect x="11" y="19" width="1" height="1" fill="#4CAF50"/>
  <rect x="12" y="20" width="1" height="1" fill="#66BB6A"/>
  <rect x="13" y="20" width="1" height="1" fill="#66BB6A"/>
  <rect x="14" y="20" width="1" height="1" fill="#66BB6A"/>
  <rect x="15" y="20" width="1" height="1" fill="#66BB6A"/>
  <rect x="16" y="20" width="1" height="1" fill="#66BB6A"/>
  <rect x="17" y="20" width="1" height="1" fill="#66BB6A"/>
  <rect x="18" y="19" width="1" height="1" fill="#4CAF50"/>
  <rect x="19" y="18" width="1" height="1" fill="#2E7D32"/>
</svg>
